<svg data-name="Capa 1" xmlns="http://www.w3.org/2000/svg" viewBox="0 0 544 323.33"><path d="M249.3 161.35a351.11 351.11 0 01-5.37 63.14q-5.39 29.37-16.93 51.63t-30.19 34.74q-18.71 12.48-45.39 12.48-27.1 0-46-12.8t-30.48-35.18q-11.51-22.37-16.78-51.84a355.87 355.87 0 01-5.27-62.6q0-53.78 11.08-89.49T97 17.86Q118.93.01 151.42 0q35.28 0 56.79 21.41t31.31 58q9.78 36.55 9.78 81.94zm-160.91 0q0 42.81 7.21 72t21.19 44A45.16 45.16 0 00151 292.14q20.65 0 34.42-14.52t20.76-43.67q7-29.14 7-72.6 0-64.75-15.49-97.45t-46.25-32.7q-21.09 0-35.06 14.73t-21 43.67q-6.99 28.93-6.99 71.75zm398.2 157.68h-41.52L335.35 58.73h-1.72q.86 11.42 1.4 22.05t.75 20.55q.21 9.9.22 19.36v198.34h-32.48V4.52h41.3l109.93 256.43H456q-.64-12.69-1.18-23.88t-.76-21q-.21-9.8-.21-18V4.52h32.7z"/><path fill="#fff" d="M0 121.86h544v106H0z"/><path d="M132.05 171.13a67.83 67.83 0 01-1 12.18 35.61 35.61 0 01-3.26 10 17.56 17.56 0 01-5.83 6.7 17.18 17.18 0 01-17.65-.06 17.77 17.77 0 01-5.88-6.79 35.49 35.49 0 01-3.24-10 69.5 69.5 0 01-1-12.09 59 59 0 012.14-17.27q2.13-6.9 6.37-10.34a16.08 16.08 0 0110.51-3.45 14.89 14.89 0 0111 4.13 24.39 24.39 0 016 11.19 61.24 61.24 0 011.84 15.8zm-31.06 0a58.73 58.73 0 001.39 13.88q1.39 5.64 4.09 8.5a9.17 9.17 0 0013.25.06q2.65-2.81 4-8.43a61.25 61.25 0 001.35-14q0-12.51-3-18.81t-8.92-6.32a8.93 8.93 0 00-6.77 2.85q-2.7 2.83-4.05 8.43a60.06 60.06 0 00-1.33 13.84zm76.61-15.99q5.36 0 7.95 3.88t2.6 11.81v30.73h-6.4v-29.6q0-6-1.51-8.58a4.82 4.82 0 00-4.39-2.59 6.1 6.1 0 00-5.93 3.9q-1.79 3.9-1.79 11.29v25.58h-6.31v-29.7a25.71 25.71 0 00-.66-6.5 6.78 6.78 0 00-2-3.5 5 5 0 00-3.3-1.08 5.64 5.64 0 00-4.73 2.11 12.92 12.92 0 00-2.31 5.82 49.37 49.37 0 00-.64 8.43v24.42h-6.39v-45.59h5.1l.75 6.48h.36a13.34 13.34 0 012.25-3.95 9.31 9.31 0 013.26-2.49 10 10 0 014.25-.87 8.66 8.66 0 016.21 2.14 10.43 10.43 0 013 5.37h.46a13.53 13.53 0 013.94-5.66 9.79 9.79 0 016.23-1.85zm33.72 0q6.3 0 9 4t2.68 11.72v30.7h-4.86l-1-6.48h-.16a15.29 15.29 0 01-2.58 4 10.33 10.33 0 01-3.4 2.49 10.69 10.69 0 01-4.4.85 8.71 8.71 0 01-5.78-1.87 11 11 0 01-3.32-4.92 19.58 19.58 0 01-1.08-6.58q0-6.77 3.91-10.5t11.08-4.07l5.19-.34v-3.11q0-5.47-1.49-8a5.17 5.17 0 00-4.82-2.54 13.41 13.41 0 00-4 .67 22.07 22.07 0 00-4.54 2.12l-2-4.82a19.84 19.84 0 015.5-2.47 22.64 22.64 0 016.07-.85zm5.44 23.72l-4.24.29q-4.81.28-7.16 2.72c-1.57 1.62-2.35 4-2.35 7q0 4.28 1.54 6.31a5 5 0 004.23 2 6.5 6.5 0 005.88-3.65q2.1-3.66 2.1-10.09zm32.51-23.68a12.91 12.91 0 013.9.62l-1 6.56a5.91 5.91 0 00-1.57-.45 11.24 11.24 0 00-1.79-.13 5.38 5.38 0 00-3.42 1.23 10.09 10.09 0 00-2.68 3.42 20.17 20.17 0 00-1.73 5.11 29.74 29.74 0 00-.56 6.27v23.75H234v-45.59h5l.87 8.1h.42a23 23 0 012.24-4.61 10.82 10.82 0 013-3.14 6.54 6.54 0 013.74-1.14zm62.07 46.38h-8l-21.18-50.24h-.33c.11 1.47.2 2.88.27 4.25s.12 2.7.15 4 0 2.52 0 3.74v38.25H276v-60.7h8l21.22 49.5h.25c-.08-1.63-.16-3.17-.23-4.61s-.12-2.79-.15-4.05 0-2.41 0-3.46v-37.38h6.31zm39.99-22.84a47.72 47.72 0 01-.91 9.76 24.23 24.23 0 01-2.78 7.48 13.37 13.37 0 01-4.74 4.77 13.22 13.22 0 01-6.77 1.66 12.69 12.69 0 01-6.56-1.66 13.51 13.51 0 01-4.69-4.75 24.56 24.56 0 01-2.82-7.48 45.8 45.8 0 01-1-9.78 44 44 0 011.62-12.81 16.16 16.16 0 015-8 13 13 0 018.55-2.76 12.75 12.75 0 018.22 2.68 16.47 16.47 0 015.11 7.93 41.65 41.65 0 011.77 12.96zm-23.71 0a45.91 45.91 0 00.92 10 12.65 12.65 0 002.84 6.06 6.49 6.49 0 004.92 2 6.37 6.37 0 004.84-2 12.68 12.68 0 002.8-6 46.27 46.27 0 00.91-10.07 45.61 45.61 0 00-.91-9.94 12.85 12.85 0 00-2.8-6 6.41 6.41 0 00-4.88-2c-3 0-5.25 1.51-6.6 4.51s-2.04 7.46-2.04 13.44zm27.82-22.75H362l6.44 26.66.73 3.4q.35 1.66.66 3.3c.21 1.1.38 2.2.52 3.3h.33c.22-1.6.5-3.23.83-4.88s.72-3.36 1.17-5.16l6.32-26.62h6.56L372 208.86a32.37 32.37 0 01-2.82 7.47 11.5 11.5 0 01-3.8 4.28 9.57 9.57 0 01-5.17 1.37 9.71 9.71 0 01-2-.21c-.66-.13-1.37-.3-2.11-.49v-5.69a10.68 10.68 0 001.64.45 8.54 8.54 0 001.64.17 4.5 4.5 0 002.7-.81 6.76 6.76 0 002-2.68 29.94 29.94 0 001.7-5.11l1.62-6.39zm64.32 22.75a47.72 47.72 0 01-.91 9.76 24.23 24.23 0 01-2.78 7.48 13.37 13.37 0 01-4.74 4.77 13.22 13.22 0 01-6.77 1.66 12.69 12.69 0 01-6.56-1.66 13.51 13.51 0 01-4.69-4.75 24.56 24.56 0 01-2.82-7.48 45.8 45.8 0 01-1-9.78 44 44 0 011.62-12.81 16.22 16.22 0 015-8 13.07 13.07 0 018.56-2.76 12.75 12.75 0 018.22 2.68 16.47 16.47 0 015.11 7.93 41.65 41.65 0 011.76 12.96zm-23.71 0a46.61 46.61 0 00.91 10 12.75 12.75 0 002.85 6.06 6.49 6.49 0 004.92 2 6.37 6.37 0 004.84-2 12.68 12.68 0 002.8-6 46.27 46.27 0 00.91-10.07 45.61 45.61 0 00-.91-9.94 12.85 12.85 0 00-2.8-6 6.41 6.41 0 00-4.88-2c-3.05 0-5.25 1.51-6.6 4.51s-2.04 7.46-2.04 13.44zm39.28 22.84h-6.39v-64.61h6.39zm23.25-46.42q6.31 0 9 4t2.71 11.72v30.7h-4.85l-1-6.48h-.16a15.29 15.29 0 01-2.58 4 10.33 10.33 0 01-3.4 2.49 10.71 10.71 0 01-4.41.85 8.7 8.7 0 01-5.77-1.87 11 11 0 01-3.32-4.92 19.58 19.58 0 01-1.08-6.58q0-6.77 3.91-10.5t11.08-4.07l5.19-.34v-3.11q0-5.47-1.49-8a5.18 5.18 0 00-4.82-2.54 13.41 13.41 0 00-4 .67 22.07 22.07 0 00-4.54 2.12l-2-4.82a19.84 19.84 0 015.5-2.47 22.62 22.62 0 016.03-.85zm5.42 23.72l-4.24.29q-4.81.28-7.16 2.72c-1.57 1.62-2.35 4-2.35 7q0 4.28 1.54 6.31a5 5 0 004.23 2 6.5 6.5 0 005.88-3.65q2.1-3.67 2.1-10.07z"/></svg>