<svg id="Capa_2" data-name="Capa 2" xmlns="http://www.w3.org/2000/svg" viewBox="0 0 908 487.09"><defs><style>.cls-1,.cls-50{fill:#2b5461;}.cls-1,.cls-13,.cls-15,.cls-8{stroke:#00365c;}.cls-1,.cls-10,.cls-11,.cls-12,.cls-13,.cls-14,.cls-15,.cls-16,.cls-17,.cls-18,.cls-19,.cls-2,.cls-28,.cls-3,.cls-4,.cls-47,.cls-49,.cls-5,.cls-55,.cls-56,.cls-58,.cls-59,.cls-6,.cls-8{stroke-miterlimit:10;}.cls-1,.cls-10,.cls-11,.cls-12,.cls-17,.cls-18,.cls-19,.cls-2,.cls-28,.cls-3,.cls-4,.cls-47,.cls-5,.cls-55,.cls-56,.cls-58,.cls-59,.cls-6,.cls-8{stroke-width:5.67px;}.cls-12,.cls-2{fill:#ffb538;}.cls-2,.cls-58{stroke:#000;}.cls-28,.cls-3,.cls-48,.cls-58{fill:#fff;}.cls-14,.cls-16,.cls-3,.cls-5,.cls-6{stroke:#00355c;}.cls-11,.cls-13,.cls-15,.cls-4,.cls-56,.cls-59,.cls-6,.cls-8{fill:none;}.cls-11,.cls-4{stroke:#00345c;}.cls-14,.cls-16,.cls-26,.cls-5{fill:#cee6f0;}.cls-7{fill:#00395f;}.cls-9{fill:#00355c;}.cls-10{fill:#ff8576;stroke:#00395f;}.cls-11,.cls-12,.cls-13,.cls-17,.cls-18,.cls-19,.cls-47,.cls-56,.cls-59{stroke-linecap:round;}.cls-12,.cls-59{stroke:#00315c;}.cls-13{stroke-width:8.5px;}.cls-14{stroke-width:7.69px;}.cls-15{stroke-width:2.83px;}.cls-16{stroke-width:5.67px;}.cls-17{fill:#ffb331;stroke:#ff9540;}.cls-18{fill:#ff6c56;}.cls-18,.cls-19,.cls-47{stroke:#ffb331;}.cls-19{fill:#ff973e;}.cls-20{fill:#ffb43a;}.cls-21{fill:#ff6b55;}.cls-22{fill:#ffb438;}.cls-23{fill:#ff9947;}.cls-24{fill:#ff9945;}.cls-25{fill:#ffe573;}.cls-27{fill:#214047;}.cls-28{stroke:#002e58;}.cls-29{fill:#ff9742;}.cls-30{fill:#ff664e;}.cls-31{fill:#ff963c;}.cls-32{fill:#ff9842;}.cls-33{fill:#244265;}.cls-34,.cls-55{fill:#ff8226;}.cls-35{fill:#234165;}.cls-36{fill:#ff553a;}.cls-37{fill:#ffc84b;}.cls-38{fill:#ffbb6c;}.cls-39{fill:#ff725d;}.cls-40{fill:#ffca54;}.cls-41{fill:#ff6e56;}.cls-42{fill:#ffbe1d;}.cls-43{fill:#ffcd58;}.cls-44{fill:#ff6f58;}.cls-45{fill:#ff644d;}.cls-46{fill:#ff6b57;}.cls-47{fill:#ffbd3f;}.cls-49{fill:#0e7f99;stroke:#2b5461;stroke-width:0.71px;}.cls-51{fill:#fefefe;}.cls-52{fill:#ffcb54;}.cls-53{fill:#ff4b4e;}.cls-54{fill:#fffffe;}.cls-55{stroke:#00365d;}.cls-56{stroke:#fff;}.cls-57{fill:#00bef9;}.cls-60{fill:#617e93;}</style></defs><title>svg</title><path class="cls-1" d="M818.5,465.86v-3.72a6.73,6.73,0,0,1,5-6.49l2.9-.79a6.75,6.75,0,0,0,4.42-3.85l3.4-7.93a6.76,6.76,0,0,0-.34-6h0a6.74,6.74,0,0,1,.7-7.69l4.54-5.36a6.73,6.73,0,0,1,8.15-1.67l2.4,1.19a6.71,6.71,0,0,0,5.79.11l5.41-2.46a6.72,6.72,0,0,0,3.6-4l.54-1.62a6.71,6.71,0,0,1,6.38-4.6h5.75a6.72,6.72,0,0,1,6.57,5.27l.05.2a6.74,6.74,0,0,0,4.15,4.83l6.86,2.63a6.72,6.72,0,0,0,5.43-.26l3.22-1.61a6.72,6.72,0,0,1,7.53,1l4.25,3.86a6.74,6.74,0,0,1,1.8,7.28l-1.62,4.46a6.73,6.73,0,0,0,0,4.6l2.15,5.92a6.75,6.75,0,0,0,3.74,3.92l5.13,2.13a6.74,6.74,0,0,1,4.14,6.22v3a6.74,6.74,0,0,1-4.14,6.22l-5,2.09a6.74,6.74,0,0,0-3.8,4.09l-3.09,9.28a6.71,6.71,0,0,0,.5,5.4l1.37,2.46a6.75,6.75,0,0,1-.63,7.48l-2.1,2.63a6.75,6.75,0,0,1-7.68,2.07l-5.51-2.12a6.75,6.75,0,0,0-5.61.36l-8.06,4.33a6.73,6.73,0,0,0-3.11,3.57l-.47,1.26a6.74,6.74,0,0,1-6.3,4.37h-5.78a6.73,6.73,0,0,1-6.25-4.23l-1.18-2.95a6.75,6.75,0,0,0-4-3.84l-8.27-3a6.73,6.73,0,0,0-5.53.46l-1.9,1a6.72,6.72,0,0,1-8-1.12l-3.22-3.22a6.73,6.73,0,0,1-1.46-7.35l2.19-5.25a6.74,6.74,0,0,0,0-5.18L830.77,477a6.74,6.74,0,0,0-4.45-3.91l-2.86-.78A6.73,6.73,0,0,1,818.5,465.86Z" transform="translate(-58.5 -165.67)"/><path class="cls-2" d="M619.77,333l2.65,6.37a6.74,6.74,0,0,1,0,5.18l-2.19,5.25a6.73,6.73,0,0,0,1.46,7.35l3.22,3.22a6.74,6.74,0,0,0,8,1.12l1.9-1.05a6.73,6.73,0,0,1,5.53-.46l8.27,3a6.75,6.75,0,0,1,4,3.84l1.18,2.95a6.73,6.73,0,0,0,6.25,4.23h5.78a6.74,6.74,0,0,0,6.3-4.37l.47-1.27a6.74,6.74,0,0,1,3.11-3.56l8.06-4.33a6.68,6.68,0,0,1,5.61-.36l5.51,2.12a6.75,6.75,0,0,0,7.68-2.08l2.1-2.62a6.75,6.75,0,0,0,.63-7.48l-1.37-2.46a6.71,6.71,0,0,1-.5-5.4l3.09-9.28a6.74,6.74,0,0,1,3.8-4.09l5-2.09a6.74,6.74,0,0,0,4.14-6.22v-3a6.74,6.74,0,0,0-4.14-6.22l-5.13-2.13a6.75,6.75,0,0,1-3.74-3.92l-2.15-5.92a6.73,6.73,0,0,1,0-4.6l1.62-4.46a6.74,6.74,0,0,0-1.8-7.28L699.91,279a6.72,6.72,0,0,0-7.53-1l-3.22,1.61a6.72,6.72,0,0,1-5.43.26l-6.86-2.63a6.74,6.74,0,0,1-4.15-4.83l-.05-.2a6.72,6.72,0,0,0-6.57-5.27h-5.75a6.71,6.71,0,0,0-6.38,4.6l-.54,1.62a6.72,6.72,0,0,1-3.6,4l-5.41,2.46a6.71,6.71,0,0,1-5.79-.11l-2.4-1.2a6.75,6.75,0,0,0-8.15,1.68l-4.54,5.36a6.74,6.74,0,0,0-.7,7.69h0a6.76,6.76,0,0,1,.34,6l-3.4,7.93a6.71,6.71,0,0,1-4.42,3.84l-2.9.8a6.73,6.73,0,0,0-5,6.49v3.72a6.73,6.73,0,0,0,5,6.49l2.86.78A6.74,6.74,0,0,1,619.77,333Z" transform="translate(-58.5 -165.67)"/><path class="cls-3" d="M317.5,396.21v75.37a20.92,20.92,0,0,1-20.92,20.92H186.42a20.92,20.92,0,0,1-20.92-20.92V396.21C169.5,395.5,317.5,396.21,317.5,396.21Z" transform="translate(-58.5 -165.67)"/><polyline class="cls-4" points="154 262.83 142 273.83 154 286.83"/><polyline class="cls-4" points="212.11 286.5 224.11 275.5 212.11 262.5"/><line class="cls-4" x1="192" y1="254.83" x2="173" y2="295.83"/><path class="cls-5" d="M317.5,385.42v10.79s-148-.71-152,0V385.42a20.92,20.92,0,0,1,20.92-20.92H296.58A20.92,20.92,0,0,1,317.5,385.42Z" transform="translate(-58.5 -165.67)"/><rect class="cls-5" x="300" y="265.83" width="304" height="188" rx="19.73"/><rect class="cls-6" x="325" y="285.83" width="255" height="154" rx="14.03"/><path class="cls-5" d="M285.1,453.83H618.9a7.1,7.1,0,0,1,7.1,7.1v5.85a16,16,0,0,1-16,16H294a16,16,0,0,1-16-16v-5.85A7.1,7.1,0,0,1,285.1,453.83Z"/><path class="cls-7" d="M427,455.83h53a0,0,0,0,1,0,0v0a10,10,0,0,1-10,10H437a10,10,0,0,1-10-10v0a0,0,0,0,1,0,0Z"/><circle class="cls-7" cx="453" cy="447.83" r="4"/><path class="cls-8" d="M672.5,579.5h63a25,25,0,0,0,25-25v-37a25,25,0,0,1,25-25h0a25,25,0,0,1,25,25v11" transform="translate(-58.5 -165.67)"/><rect class="cls-5" x="727" y="362.83" width="52" height="77" rx="26"/><circle class="cls-9" cx="752" cy="386.83" r="5"/><path class="cls-10" d="M233.5,487.5v77.07a11.93,11.93,0,0,1-11.93,11.93H111.43A11.93,11.93,0,0,1,99.5,564.57V514.43a11.93,11.93,0,0,1,11.93-11.93H212.56C221.92,495.43,232,488,233.5,487.5Z" transform="translate(-58.5 -165.67)"/><path class="cls-3" d="M344.5,415.21v75.37a20.92,20.92,0,0,1-20.92,20.92H213.42a20.92,20.92,0,0,1-20.92-20.92V415.21C196.5,414.5,344.5,415.21,344.5,415.21Z" transform="translate(-58.5 -165.67)"/><polyline class="cls-11" points="181 281.83 169 292.83 181 305.83"/><polyline class="cls-11" points="239.11 305.5 251.11 294.5 239.11 281.5"/><line class="cls-11" x1="219" y1="273.83" x2="200" y2="314.83"/><path class="cls-5" d="M344.5,404.42v10.79s-148-.71-152,0V404.42a20.92,20.92,0,0,1,20.92-20.92H323.58A20.92,20.92,0,0,1,344.5,404.42Z" transform="translate(-58.5 -165.67)"/><circle class="cls-9" cx="150" cy="235.83" r="3"/><circle class="cls-9" cx="163" cy="235.83" r="3"/><circle class="cls-9" cx="177" cy="235.83" r="3"/><path class="cls-12" d="M442.5,330.19V376A16.49,16.49,0,0,1,426,392.5H343.93l-20.43,18V330.84a15.34,15.34,0,0,1,15.34-15.34h89A14.69,14.69,0,0,1,442.5,330.19Z" transform="translate(-58.5 -165.67)"/><path class="cls-13" d="M341.5,234.5h86.93a10.07,10.07,0,0,1,10.07,10.07v27.86a10.07,10.07,0,0,1-10.07,10.07H314.5" transform="translate(-58.5 -165.67)"/><rect class="cls-14" x="380" y="78.83" width="54" height="23"/><circle class="cls-9" cx="431" cy="91.83" r="21"/><line class="cls-15" x1="450" y1="94.33" x2="450" y2="149.33"/><path class="cls-9" d="M450,148.83h0a8,8,0,0,1,8,8v16a0,0,0,0,1,0,0H442a0,0,0,0,1,0,0v-16A8,8,0,0,1,450,148.83Z"/><rect class="cls-16" x="409" y="172.83" width="81" height="26" rx="6.46"/><path class="cls-8" d="M675.5,475.5h21.14a6.86,6.86,0,0,0,6.86-6.86V427.85a6.35,6.35,0,0,0-6.35-6.35H693.5" transform="translate(-58.5 -165.67)"/><path class="cls-8" d="M722.5,418.5V484a8.49,8.49,0,0,1-8.5,8.5H675.5" transform="translate(-58.5 -165.67)"/><path class="cls-8" d="M751.5,421.5h-3.3a6.7,6.7,0,0,0-6.7,6.7v59.9a23.4,23.4,0,0,1-23.4,23.4H675.5" transform="translate(-58.5 -165.67)"/><line class="cls-17" x1="204" y1="68.83" x2="191" y2="82.83"/><line class="cls-17" x1="191" y1="68.83" x2="204" y2="82.83"/><line class="cls-18" x1="683" y1="62.83" x2="669" y2="78.83"/><line class="cls-18" x1="669" y1="62.83" x2="683" y2="78.83"/><line class="cls-17" x1="742" y1="144.83" x2="757" y2="160.83"/><line class="cls-17" x1="757" y1="144.83" x2="742" y2="160.83"/><line class="cls-19" x1="119" y1="433.83" x2="140" y2="451.83"/><line class="cls-19" x1="140" y1="433.83" x2="119" y2="451.83"/><circle class="cls-20" cx="545" cy="84.83" r="12"/><circle class="cls-21" cx="479" cy="35.83" r="11"/><circle class="cls-22" cx="306" cy="35.83" r="11"/><circle class="cls-23" cx="160" cy="144.83" r="12"/><circle class="cls-24" cx="839" cy="116.83" r="13"/><path class="cls-25" d="M313.42,238.94c-2.26,0-4.09.2-4.09,2.21l0,.5c0,2,1.79,3.14,4.05,3.14H316c3.1,0,5.62,2.24,5.62,5h0c0,2.76-2.52,5-5.62,5H299.62a3.39,3.39,0,0,0-3.57,3.18h0a3.39,3.39,0,0,0,3.57,3.18h15.84a4.86,4.86,0,0,1,5.11,4.55h0a4.85,4.85,0,0,1-5.11,4.54h-5.13a3.87,3.87,0,0,0-4.07,3.62h0a3.87,3.87,0,0,0,4.11,3.62l118-.84A4.61,4.61,0,0,0,433,272V245.25a5,5,0,0,0-5-5.05l-92.17-.86" transform="translate(-58.5 -165.67)"/><circle class="cls-26" cx="431" cy="91.83" r="14"/><circle class="cls-9" cx="431" cy="90.83" r="3.5"/><circle class="cls-27" cx="816" cy="298.83" r="33.36"/><circle class="cls-28" cx="816" cy="298.83" r="26"/><circle class="cls-29" cx="693" cy="443.83" r="12"/><line class="cls-13" x1="62" y1="482.83" x2="842" y2="482.83"/><line class="cls-13" x1="860" y1="482.83" x2="886" y2="482.83"/><line class="cls-13" x1="45" y1="482.83" x2="20" y2="482.83"/><circle class="cls-9" cx="816.5" cy="368.33" r="3.5"/><circle class="cls-9" cx="816.5" cy="381.33" r="3.5"/><circle class="cls-9" cx="816.5" cy="395.33" r="3.5"/><circle class="cls-30" cx="819.5" cy="441.33" r="3.5"/><circle class="cls-31" cx="868" cy="457.83" r="4"/><circle class="cls-32" cx="877" cy="417.83" r="4"/><circle class="cls-33" cx="904.5" cy="482.33" r="3.5"/><circle class="cls-34" cx="605" cy="156.83" r="32.27"/><circle class="cls-35" cx="3.5" cy="482.33" r="3.5"/><circle class="cls-36" cx="223" cy="436.83" r="3"/><circle class="cls-37" cx="178" cy="458.83" r="3"/><circle class="cls-38" cx="36.5" cy="294.33" r="3.5"/><circle class="cls-39" cx="72" cy="242.83" r="4"/><circle class="cls-40" cx="73" cy="161.83" r="5"/><circle class="cls-41" cx="224.5" cy="146.33" r="3.5"/><circle class="cls-42" cx="497.5" cy="128.33" r="4.5"/><circle class="cls-43" cx="524.5" cy="51.33" r="4.5"/><circle class="cls-44" cx="513" cy="164.83" r="3"/><circle class="cls-45" cx="582.5" cy="46.33" r="3.5"/><circle class="cls-46" cx="868" cy="214.83" r="4"/><circle class="cls-9" cx="816.5" cy="191.33" r="3.5"/><circle class="cls-9" cx="816.5" cy="204.33" r="3.5"/><circle class="cls-9" cx="816.5" cy="218.33" r="3.5"/><circle class="cls-9" cx="816.5" cy="232.33" r="3.5"/><circle class="cls-9" cx="802.5" cy="218.33" r="3.5"/><circle class="cls-9" cx="788.5" cy="218.33" r="3.5"/><circle class="cls-9" cx="774.5" cy="218.33" r="3.5"/><circle class="cls-9" cx="760.5" cy="218.33" r="3.5"/><circle class="cls-9" cx="747" cy="217.83" r="3"/><line class="cls-47" x1="378" y1="2.83" x2="395" y2="20.83"/><line class="cls-47" x1="396" y1="2.83" x2="378" y2="20.83"/><path class="cls-5" d="M672.5,410.5h96s27-4,27-34-33-28-33-28,3-24-25-28c0,0-20-2-24,17,0,0-16-9-29,5,0,0-6,7-7,13,0,0-25,2-27,28S672.5,410.5,672.5,410.5Z" transform="translate(-58.5 -165.67)"/><path class="cls-8" d="M265.27,519.5v15.9a17.11,17.11,0,0,0,17.1,17.1h67.14" transform="translate(-58.5 -165.67)"/><path class="cls-48" d="M340,286.83H396.6a0,0,0,0,1,0,0v151a0,0,0,0,1,0,0H340a14,14,0,0,1-14-14V300.8A14,14,0,0,1,340,286.83Z"/><rect class="cls-49" x="342.95" y="309.83" width="27.04" height="7.89" rx="3.68"/><rect class="cls-49" x="352.77" y="323.02" width="25.44" height="8.15" rx="3.68"/><rect class="cls-49" x="351.38" y="337.14" width="23.45" height="8.7" rx="3.68"/><rect class="cls-49" x="342.95" y="353.83" width="27.04" height="9" rx="3.68"/><rect class="cls-49" x="352.77" y="368.54" width="30.41" height="7.55" rx="3.68"/><rect class="cls-49" x="352.77" y="382.45" width="17.22" height="7.35" rx="3.68"/><rect class="cls-49" x="352.77" y="396.36" width="25.44" height="7.35" rx="3.68"/><path class="cls-50" d="M395.6,286.83H565.11A13.89,13.89,0,0,1,579,300.72V426.06a12.48,12.48,0,0,1-12.48,12.48H395.6a0,0,0,0,1,0,0V286.83A0,0,0,0,1,395.6,286.83Z"/><rect class="cls-49" x="352.77" y="409.68" width="20.87" height="7.95" rx="3.68"/><rect class="cls-51" x="406.59" y="306.71" width="29.73" height="12.99" rx="6.5"/><rect class="cls-52" x="416.09" y="323.02" width="40.91" height="10.92" rx="5.46"/><rect class="cls-51" x="462.8" y="321.95" width="22.98" height="10.24" rx="5.12"/><rect class="cls-51" x="490.79" y="321.95" width="27.98" height="11.99" rx="6"/><rect class="cls-51" x="416.09" y="335.94" width="50.22" height="11.24" rx="5.62"/><rect class="cls-53" x="471.8" y="335.94" width="25.23" height="9.89" rx="4.95"/><rect class="cls-51" x="404.59" y="350.68" width="31.73" height="13.74" rx="6.87"/><rect class="cls-52" x="415.09" y="366.42" width="29.23" height="13.24" rx="6.62"/><rect class="cls-51" x="447.81" y="366.42" width="52.71" height="13.24" rx="6.62"/><rect class="cls-51" x="503.78" y="366.42" width="25.48" height="13.24" rx="6.62"/><rect class="cls-54" x="415.09" y="381.16" width="52.96" height="10.99" rx="4.95"/><rect class="cls-53" x="471.8" y="381.16" width="23.98" height="12.24" rx="4.95"/><rect class="cls-53" x="415.09" y="394.41" width="44.72" height="13.74" rx="6.87"/><rect class="cls-51" x="461.06" y="394.41" width="49.22" height="13.74" rx="6.87"/><rect class="cls-51" x="415.09" y="410.15" width="26.11" height="11.99" rx="6"/><rect class="cls-52" x="444.32" y="410.15" width="42.97" height="11.99" rx="6"/><circle class="cls-55" cx="532" cy="262.83" r="39"/><path class="cls-56" d="M574.5,428.5l8.12,8.12a2.66,2.66,0,0,0,3.76,0L604.5,418.5" transform="translate(-58.5 -165.67)"/><circle class="cls-48" cx="160" cy="145.1" r="3.73"/><circle class="cls-48" cx="306" cy="36.33" r="3.5"/><circle class="cls-48" cx="479" cy="35.83" r="4.38"/><circle class="cls-48" cx="545" cy="84.83" r="4"/><circle class="cls-48" cx="693" cy="444.83" r="4"/><circle class="cls-48" cx="839" cy="116.83" r="5.52"/><path class="cls-57" d="M799.76,599.4S825.38,603.8,831,583l-1-42.56a24.78,24.78,0,0,1,5.15,15.23c.07,9.12.07,26.32.07,26.32a23.28,23.28,0,0,1-17.75,20.18S807.47,604.39,799.76,599.4Z" transform="translate(-58.5 -165.67)"/><path class="cls-22" d="M348.67,277.21A5.21,5.21,0,0,1,353.5,273l73.58-1.54V240.18S433,239,433,246.62V272s.88,5.64-9,5.17S348.67,277.21,348.67,277.21Z" transform="translate(-58.5 -165.67)"/><circle class="cls-58" cx="605" cy="156.83" r="26"/><path class="cls-59" d="M670.55,357.12s19.07-7.93,33,19.14" transform="translate(-58.5 -165.67)"/><path class="cls-59" d="M707.42,335.32s14.72,5.22,19.73,16.18" transform="translate(-58.5 -165.67)"/><path class="cls-59" d="M787.09,356s-15.56-14.87-42.39-2.33" transform="translate(-58.5 -165.67)"/><path class="cls-60" d="M785.09,357.91S801,398.33,764.74,403l-100.43-.48s-3.81,3.8,4.24,5.54h98s24.57-4.25,25.58-30.64c0,0,.86-14-7-20.42Z" transform="translate(-58.5 -165.67)"/><path class="cls-59" d="M719.5,391.31s-.12,14.82,16.68,18.69" transform="translate(-58.5 -165.67)"/><rect class="cls-12" x="431" y="198.83" width="35.3" height="50.71" rx="6.12"/><circle class="cls-34" cx="448.65" cy="214.69" r="3.35"/><circle class="cls-34" cx="448.65" cy="223.83" r="3.35"/><circle class="cls-34" cx="448.65" cy="233.73" r="3.35"/><path class="cls-9" d="M368.16,371.93a1.93,1.93,0,0,1-1.31,2.33,27.24,27.24,0,0,1-7.85,1.05c-10.23,0-17.94-6.46-17.94-18.37,0-11.36,7.71-19.06,19-19.06a23.12,23.12,0,0,1,6.89.92,1.91,1.91,0,0,1,1.24,2.37l0,.14a1.92,1.92,0,0,1-2.43,1.29,18.49,18.49,0,0,0-5.48-.79c-8.51,0-14.17,5.44-14.17,15,0,8.89,5.12,14.6,14,14.6a21.25,21.25,0,0,0,5.75-.79,1.94,1.94,0,0,1,2.44,1.34Z" transform="translate(-58.5 -165.67)"/><path class="cls-9" d="M373.14,371.27a1.93,1.93,0,0,1,2.62-1.2,16.65,16.65,0,0,0,6.45,1.36c4.8,0,7.6-2.53,7.6-6.19,0-3.4-1.94-5.33-6.84-7.22-5.93-2.1-9.59-5.17-9.59-10.29,0-5.65,4.68-9.85,11.74-9.85a18.59,18.59,0,0,1,6.35,1,1.9,1.9,0,0,1,1.12,2.41l-.06.17a1.92,1.92,0,0,1-2.5,1.18,14.77,14.77,0,0,0-5.07-.9c-5,0-6.84,3-6.84,5.44,0,3.4,2.21,5.07,7.22,7,6.14,2.37,9.26,5.33,9.26,10.66,0,5.6-4.15,10.45-12.71,10.45a20.89,20.89,0,0,1-7.69-1.49,1.93,1.93,0,0,1-1.12-2.34Z" transform="translate(-58.5 -165.67)"/><path class="cls-9" d="M399.7,371.27a1.92,1.92,0,0,1,2.62-1.2,16.56,16.56,0,0,0,6.44,1.36c4.8,0,7.6-2.53,7.6-6.19,0-3.4-1.94-5.33-6.84-7.22-5.93-2.1-9.59-5.17-9.59-10.29,0-5.65,4.69-9.85,11.74-9.85a18.59,18.59,0,0,1,6.35,1,1.9,1.9,0,0,1,1.12,2.41l-.06.17a1.91,1.91,0,0,1-2.49,1.18,14.83,14.83,0,0,0-5.08-.9c-4.95,0-6.84,3-6.84,5.44,0,3.4,2.21,5.07,7.22,7,6.14,2.37,9.26,5.33,9.26,10.66,0,5.6-4.14,10.45-12.71,10.45a20.89,20.89,0,0,1-7.69-1.49,1.94,1.94,0,0,1-1.12-2.34Z" transform="translate(-58.5 -165.67)"/><path class="cls-9" d="M117.09,527.2v10.07a1.76,1.76,0,0,0,1.76,1.76H131a1.75,1.75,0,0,0,1.76-1.76V527.2a1.75,1.75,0,0,1,1.76-1.75h.72A1.75,1.75,0,0,1,137,527.2v29a1.75,1.75,0,0,1-1.76,1.76h-.72a1.76,1.76,0,0,1-1.76-1.76v-11.7A1.75,1.75,0,0,0,131,542.7H118.85a1.76,1.76,0,0,0-1.76,1.76v11.7a1.75,1.75,0,0,1-1.76,1.76h-.67a1.76,1.76,0,0,1-1.76-1.76v-29a1.75,1.75,0,0,1,1.76-1.75h.67A1.75,1.75,0,0,1,117.09,527.2Z" transform="translate(-58.5 -165.67)"/><path class="cls-9" d="M148.73,529h-6.36a1.76,1.76,0,0,1-1.76-1.76v0a1.75,1.75,0,0,1,1.76-1.75H162.9a1.75,1.75,0,0,1,1.76,1.75v0A1.76,1.76,0,0,1,162.9,529h-6.41a1.76,1.76,0,0,0-1.76,1.76v25.39a1.76,1.76,0,0,1-1.76,1.76h-.72a1.76,1.76,0,0,1-1.76-1.76V530.77A1.76,1.76,0,0,0,148.73,529Z" transform="translate(-58.5 -165.67)"/><path class="cls-9" d="M195.64,543.66c-.24-4.53-.53-10-.48-14H195c-1.1,3.8-2.45,7.85-4.09,12.33l-5.31,14.6a1.77,1.77,0,0,1-1.66,1.16h-.69a1.75,1.75,0,0,1-1.66-1.19l-4.85-14.28c-1.54-4.58-2.84-8.77-3.76-12.62h-.09c-.1,4-.34,9.49-.63,14.36l-.76,12.27a1.76,1.76,0,0,1-1.76,1.65h-.46a1.76,1.76,0,0,1-1.76-1.88l2-29a1.76,1.76,0,0,1,1.76-1.63h2.46a1.76,1.76,0,0,1,1.66,1.17l5.13,14.53c1.35,4,2.46,7.57,3.27,10.94H184c.82-3.27,2-6.84,3.42-10.94l5.36-14.55a1.74,1.74,0,0,1,1.65-1.15h2.47a1.74,1.74,0,0,1,1.75,1.64l1.81,29a1.76,1.76,0,0,1-1.76,1.87h-.56a1.76,1.76,0,0,1-1.76-1.66Z" transform="translate(-58.5 -165.67)"/><path class="cls-9" d="M208.77,525.45h.68a1.75,1.75,0,0,1,1.76,1.75v25.45a1.75,1.75,0,0,0,1.75,1.76h10.36a1.75,1.75,0,0,1,1.76,1.75h0a1.75,1.75,0,0,1-1.76,1.76H208.77a1.76,1.76,0,0,1-1.76-1.76v-29A1.75,1.75,0,0,1,208.77,525.45Z" transform="translate(-58.5 -165.67)"/></svg>