<svg id="Capa_1" data-name="Capa 1" xmlns="http://www.w3.org/2000/svg" viewBox="0 0 544 323.33"><defs><style>.cls-1{fill:#fff;}</style></defs><title>Logo</title><path d="M474.3,378.49a351.11,351.11,0,0,1-5.37,63.14Q463.54,471,452,493.26T421.81,528q-18.71,12.48-45.39,12.48-27.1,0-46-12.8T299.94,492.5q-11.51-22.37-16.78-51.84a355.87,355.87,0,0,1-5.27-62.6q0-53.78,11.08-89.49T322,235q21.93-17.85,54.42-17.86,35.28,0,56.79,21.41t31.31,58Q474.3,333.1,474.3,378.49Zm-160.91,0q0,42.81,7.21,72t21.19,44A45.16,45.16,0,0,0,376,509.28q20.65,0,34.42-14.52t20.76-43.67q7-29.14,7-72.6,0-64.75-15.49-97.45t-46.25-32.7q-21.09,0-35.06,14.73t-21,43.67Q313.39,335.67,313.39,378.49Z" transform="translate(-225 -217.14)"/><path d="M711.59,536.17H670.07L560.35,275.87h-1.72q.86,11.42,1.4,22.05t.75,20.55q.21,9.9.22,19.36V536.17H528.52V221.66h41.3L679.75,478.09H681q-.64-12.69-1.18-23.88t-.76-21q-.21-9.8-.21-18V221.66h32.7Z" transform="translate(-225 -217.14)"/><rect class="cls-1" y="121.86" width="544" height="106"/><path d="M357.05,388.27a67.83,67.83,0,0,1-1,12.18,35.61,35.61,0,0,1-3.26,10,17.56,17.56,0,0,1-5.83,6.7,17.18,17.18,0,0,1-17.65-.06,17.77,17.77,0,0,1-5.88-6.79,35.49,35.49,0,0,1-3.24-10,69.5,69.5,0,0,1-1-12.09,59,59,0,0,1,2.14-17.27q2.13-6.9,6.37-10.34a16.08,16.08,0,0,1,10.51-3.45,14.89,14.89,0,0,1,11,4.13,24.39,24.39,0,0,1,6,11.19A61.24,61.24,0,0,1,357.05,388.27Zm-31.06,0a58.73,58.73,0,0,0,1.39,13.88q1.39,5.64,4.09,8.5a9.17,9.17,0,0,0,13.25.06q2.65-2.81,4-8.43a61.25,61.25,0,0,0,1.35-14q0-12.51-3-18.81t-8.92-6.32a8.93,8.93,0,0,0-6.77,2.85q-2.7,2.83-4.05,8.43A60.06,60.06,0,0,0,326,388.27Z" transform="translate(-225 -217.14)"/><path d="M402.6,372.28q5.36,0,7.95,3.88t2.6,11.81V418.7h-6.4V389.1q0-6-1.51-8.58a4.82,4.82,0,0,0-4.39-2.59,6.1,6.1,0,0,0-5.93,3.9q-1.79,3.9-1.79,11.29V418.7h-6.31V389a25.71,25.71,0,0,0-.66-6.5,6.78,6.78,0,0,0-2-3.5,5,5,0,0,0-3.3-1.08,5.64,5.64,0,0,0-4.73,2.11,12.92,12.92,0,0,0-2.31,5.82,49.37,49.37,0,0,0-.64,8.43V418.7h-6.39V373.11h5.1l.75,6.48H373a13.34,13.34,0,0,1,2.25-3.95,9.31,9.31,0,0,1,3.26-2.49,10,10,0,0,1,4.25-.87,8.66,8.66,0,0,1,6.21,2.14,10.43,10.43,0,0,1,3,5.37h.46a13.53,13.53,0,0,1,3.94-5.66A9.79,9.79,0,0,1,402.6,372.28Z" transform="translate(-225 -217.14)"/><path d="M436.32,372.28q6.3,0,9,4T448,388V418.7h-4.86l-1-6.48h-.16a15.29,15.29,0,0,1-2.58,4,10.33,10.33,0,0,1-3.4,2.49,10.69,10.69,0,0,1-4.4.85,8.71,8.71,0,0,1-5.78-1.87,11,11,0,0,1-3.32-4.92,19.58,19.58,0,0,1-1.08-6.58q0-6.77,3.91-10.5t11.08-4.07l5.19-.34v-3.11q0-5.47-1.49-8a5.17,5.17,0,0,0-4.82-2.54,13.41,13.41,0,0,0-4,.67,22.07,22.07,0,0,0-4.54,2.12l-2-4.82a19.84,19.84,0,0,1,5.5-2.47A22.64,22.64,0,0,1,436.32,372.28ZM441.76,396l-4.24.29q-4.81.28-7.16,2.72c-1.57,1.62-2.35,4-2.35,7q0,4.28,1.54,6.31a5,5,0,0,0,4.23,2,6.5,6.5,0,0,0,5.88-3.65q2.1-3.66,2.1-10.09Z" transform="translate(-225 -217.14)"/><path d="M474.27,372.32a12.91,12.91,0,0,1,3.9.62l-1,6.56a5.91,5.91,0,0,0-1.57-.45,11.24,11.24,0,0,0-1.79-.13,5.38,5.38,0,0,0-3.42,1.23,10.09,10.09,0,0,0-2.68,3.42,20.17,20.17,0,0,0-1.73,5.11,29.74,29.74,0,0,0-.56,6.27V418.7H459V373.11h5l.87,8.1h.42a23,23,0,0,1,2.24-4.61,10.82,10.82,0,0,1,3-3.14A6.54,6.54,0,0,1,474.27,372.32Z" transform="translate(-225 -217.14)"/><path d="M536.34,418.7h-8l-21.18-50.24h-.33c.11,1.47.2,2.88.27,4.25s.12,2.7.15,4,0,2.52,0,3.74V418.7H501V358h8l21.22,49.5h.25c-.08-1.63-.16-3.17-.23-4.61s-.12-2.79-.15-4.05,0-2.41,0-3.46V358h6.31Z" transform="translate(-225 -217.14)"/><path d="M576.33,395.86a47.72,47.72,0,0,1-.91,9.76,24.23,24.23,0,0,1-2.78,7.48,13.37,13.37,0,0,1-4.74,4.77,13.22,13.22,0,0,1-6.77,1.66,12.69,12.69,0,0,1-6.56-1.66,13.51,13.51,0,0,1-4.69-4.75,24.56,24.56,0,0,1-2.82-7.48,45.8,45.8,0,0,1-1-9.78,44,44,0,0,1,1.62-12.81,16.16,16.16,0,0,1,5-8,13,13,0,0,1,8.55-2.76,12.75,12.75,0,0,1,8.22,2.68,16.47,16.47,0,0,1,5.11,7.93A41.65,41.65,0,0,1,576.33,395.86Zm-23.71,0a45.91,45.91,0,0,0,.92,10,12.65,12.65,0,0,0,2.84,6.06,6.49,6.49,0,0,0,4.92,2,6.37,6.37,0,0,0,4.84-2,12.68,12.68,0,0,0,2.8-6,46.27,46.27,0,0,0,.91-10.07,45.61,45.61,0,0,0-.91-9.94,12.85,12.85,0,0,0-2.8-6,6.41,6.41,0,0,0-4.88-2c-3,0-5.25,1.51-6.6,4.51S552.62,389.88,552.62,395.86Z" transform="translate(-225 -217.14)"/><path d="M580.44,373.11H587l6.44,26.66.73,3.4q.35,1.66.66,3.3c.21,1.1.38,2.2.52,3.3h.33c.22-1.6.5-3.23.83-4.88s.72-3.36,1.17-5.16L604,373.11h6.56L597,426a32.37,32.37,0,0,1-2.82,7.47,11.5,11.5,0,0,1-3.8,4.28,9.57,9.57,0,0,1-5.17,1.37,9.71,9.71,0,0,1-2-.21c-.66-.13-1.37-.3-2.11-.49v-5.69a10.68,10.68,0,0,0,1.64.45,8.54,8.54,0,0,0,1.64.17,4.5,4.5,0,0,0,2.7-.81,6.76,6.76,0,0,0,2-2.68,29.94,29.94,0,0,0,1.7-5.11l1.62-6.39Z" transform="translate(-225 -217.14)"/><path d="M644.76,395.86a47.72,47.72,0,0,1-.91,9.76,24.23,24.23,0,0,1-2.78,7.48,13.37,13.37,0,0,1-4.74,4.77,13.22,13.22,0,0,1-6.77,1.66,12.69,12.69,0,0,1-6.56-1.66,13.51,13.51,0,0,1-4.69-4.75,24.56,24.56,0,0,1-2.82-7.48,45.8,45.8,0,0,1-1-9.78,44,44,0,0,1,1.62-12.81,16.22,16.22,0,0,1,5-8,13.07,13.07,0,0,1,8.56-2.76,12.75,12.75,0,0,1,8.22,2.68,16.47,16.47,0,0,1,5.11,7.93A41.65,41.65,0,0,1,644.76,395.86Zm-23.71,0a46.61,46.61,0,0,0,.91,10,12.75,12.75,0,0,0,2.85,6.06,6.49,6.49,0,0,0,4.92,2,6.37,6.37,0,0,0,4.84-2,12.68,12.68,0,0,0,2.8-6,46.27,46.27,0,0,0,.91-10.07,45.61,45.61,0,0,0-.91-9.94,12.85,12.85,0,0,0-2.8-6,6.41,6.41,0,0,0-4.88-2c-3.05,0-5.25,1.51-6.6,4.51S621.05,389.88,621.05,395.86Z" transform="translate(-225 -217.14)"/><path d="M660.33,418.7h-6.39V354.09h6.39Z" transform="translate(-225 -217.14)"/><path d="M683.58,372.28q6.31,0,9,4T695.29,388V418.7h-4.85l-1-6.48h-.16a15.29,15.29,0,0,1-2.58,4,10.33,10.33,0,0,1-3.4,2.49,10.71,10.71,0,0,1-4.41.85,8.7,8.7,0,0,1-5.77-1.87,11,11,0,0,1-3.32-4.92,19.58,19.58,0,0,1-1.08-6.58q0-6.77,3.91-10.5t11.08-4.07l5.19-.34v-3.11q0-5.47-1.49-8a5.18,5.18,0,0,0-4.82-2.54,13.41,13.41,0,0,0-4,.67,22.07,22.07,0,0,0-4.54,2.12l-2-4.82a19.84,19.84,0,0,1,5.5-2.47A22.62,22.62,0,0,1,683.58,372.28ZM689,396l-4.24.29q-4.81.28-7.16,2.72c-1.57,1.62-2.35,4-2.35,7q0,4.28,1.54,6.31a5,5,0,0,0,4.23,2,6.5,6.5,0,0,0,5.88-3.65Q689,407,689,400.6Z" transform="translate(-225 -217.14)"/></svg>